# xmcd
# 
# Track frame offsets:
#     150
#     20192
#     48865
#     69622
#     87730
#     120237
#     138065
#     164225
#     200362
#     218920
#     231142
# 
# Disc length: 3452
# 
# Revision: 17
# Processed by: cddbd v1.5.2PL0 Copyright (c) Steve Scherf et al.
# Submitted via: BonkEnc v1.0rc2
# 
DISCID=9e0d7a0b
DTITLE=Faithless - Sunday 8PM
DYEAR=1998
DGENRE=Electronic
TTITLE0=The Garden
TTITLE1=Bring My Family Back
TTITLE2=Hour Of Need
TTITLE3=Postcards
TTITLE4=Take The Long Way Home
TTITLE5=Why Go?
TTITLE6=She's My Baby
TTITLE7=God Is A DJ
TTITLE8=Hem Of His Garment
TTITLE9=Sunday 8PM
TTITLE10=Killer's Lullaby
EXTD=
EXTT0=
EXTT1=
EXTT2=
EXTT3=
EXTT4=
EXTT5=
EXTT6=
EXTT7=
EXTT8=
EXTT9=
EXTT10=
PLAYORDER=
